<mxfile host="app.diagrams.net" modified="2024-03-14T19:21:43.342Z" agent="Mozilla/5.0 (Windows NT 10.0; Win64; x64; rv:123.0) Gecko/20100101 Firefox/123.0" etag="PdY9DXQ8ot2tHELBWNy7" version="24.0.2" type="google">
  <diagram id="C5RBs43oDa-KdzZeNtuy" name="Page-1">
    <mxGraphModel grid="1" page="1" gridSize="10" guides="1" tooltips="1" connect="1" arrows="1" fold="1" pageScale="1" pageWidth="827" pageHeight="1169" math="0" shadow="0">
      <root>
        <mxCell id="WIyWlLk6GJQsqaUBKTNV-0" />
        <mxCell id="WIyWlLk6GJQsqaUBKTNV-1" parent="WIyWlLk6GJQsqaUBKTNV-0" />
        <mxCell id="ahRHtrevLxcIjmPfejh8-55" style="edgeStyle=orthogonalEdgeStyle;rounded=0;orthogonalLoop=1;jettySize=auto;html=1;exitX=0.25;exitY=1;exitDx=0;exitDy=0;entryX=0.5;entryY=0;entryDx=0;entryDy=0;" edge="1" parent="WIyWlLk6GJQsqaUBKTNV-1" source="ahRHtrevLxcIjmPfejh8-2" target="ahRHtrevLxcIjmPfejh8-53">
          <mxGeometry relative="1" as="geometry" />
        </mxCell>
        <mxCell id="ahRHtrevLxcIjmPfejh8-60" style="edgeStyle=orthogonalEdgeStyle;rounded=0;orthogonalLoop=1;jettySize=auto;html=1;exitX=0.5;exitY=1;exitDx=0;exitDy=0;" edge="1" parent="WIyWlLk6GJQsqaUBKTNV-1" source="ahRHtrevLxcIjmPfejh8-2" target="ahRHtrevLxcIjmPfejh8-57">
          <mxGeometry relative="1" as="geometry" />
        </mxCell>
        <mxCell id="ahRHtrevLxcIjmPfejh8-64" style="edgeStyle=orthogonalEdgeStyle;rounded=0;orthogonalLoop=1;jettySize=auto;html=1;exitX=0.75;exitY=1;exitDx=0;exitDy=0;" edge="1" parent="WIyWlLk6GJQsqaUBKTNV-1" source="ahRHtrevLxcIjmPfejh8-2" target="ahRHtrevLxcIjmPfejh8-61">
          <mxGeometry relative="1" as="geometry" />
        </mxCell>
        <mxCell id="ahRHtrevLxcIjmPfejh8-2" value="&lt;div&gt;Duck&lt;/div&gt;" style="swimlane;fontStyle=0;childLayout=stackLayout;horizontal=1;startSize=30;horizontalStack=0;resizeParent=1;resizeParentMax=0;resizeLast=0;collapsible=1;marginBottom=0;whiteSpace=wrap;html=1;" vertex="1" parent="WIyWlLk6GJQsqaUBKTNV-1">
          <mxGeometry x="420" y="210" width="242" height="270" as="geometry" />
        </mxCell>
        <mxCell id="ahRHtrevLxcIjmPfejh8-3" value="-flyingBehaviour" style="text;strokeColor=none;fillColor=none;align=left;verticalAlign=middle;spacingLeft=4;spacingRight=4;overflow=hidden;points=[[0,0.5],[1,0.5]];portConstraint=eastwest;rotatable=0;whiteSpace=wrap;html=1;" vertex="1" parent="ahRHtrevLxcIjmPfejh8-2">
          <mxGeometry y="30" width="242" height="30" as="geometry" />
        </mxCell>
        <mxCell id="ahRHtrevLxcIjmPfejh8-7" value="-QuackBehaviour" style="text;strokeColor=none;fillColor=none;align=left;verticalAlign=middle;spacingLeft=4;spacingRight=4;overflow=hidden;points=[[0,0.5],[1,0.5]];portConstraint=eastwest;rotatable=0;whiteSpace=wrap;html=1;" vertex="1" parent="ahRHtrevLxcIjmPfejh8-2">
          <mxGeometry y="60" width="242" height="30" as="geometry" />
        </mxCell>
        <mxCell id="ahRHtrevLxcIjmPfejh8-9" value="" style="endArrow=none;html=1;rounded=0;entryX=1.007;entryY=-0.033;entryDx=0;entryDy=0;entryPerimeter=0;exitX=0.007;exitY=-0.067;exitDx=0;exitDy=0;exitPerimeter=0;" edge="1" parent="ahRHtrevLxcIjmPfejh8-2" source="ahRHtrevLxcIjmPfejh8-4" target="ahRHtrevLxcIjmPfejh8-4">
          <mxGeometry width="50" height="50" relative="1" as="geometry">
            <mxPoint y="87" as="sourcePoint" />
            <mxPoint x="112" y="90" as="targetPoint" />
          </mxGeometry>
        </mxCell>
        <mxCell id="ahRHtrevLxcIjmPfejh8-4" value="+Duck(flyingBehaviour, quackBehaviour)" style="text;strokeColor=none;fillColor=none;align=left;verticalAlign=middle;spacingLeft=4;spacingRight=4;overflow=hidden;points=[[0,0.5],[1,0.5]];portConstraint=eastwest;rotatable=0;whiteSpace=wrap;html=1;" vertex="1" parent="ahRHtrevLxcIjmPfejh8-2">
          <mxGeometry y="90" width="242" height="30" as="geometry" />
        </mxCell>
        <mxCell id="ahRHtrevLxcIjmPfejh8-11" value="+Swim()" style="text;strokeColor=none;fillColor=none;align=left;verticalAlign=middle;spacingLeft=4;spacingRight=4;overflow=hidden;points=[[0,0.5],[1,0.5]];portConstraint=eastwest;rotatable=0;whiteSpace=wrap;html=1;" vertex="1" parent="ahRHtrevLxcIjmPfejh8-2">
          <mxGeometry y="120" width="242" height="30" as="geometry" />
        </mxCell>
        <mxCell id="ahRHtrevLxcIjmPfejh8-12" value="+SetFlyBehaviour(flyBehaviour)" style="text;strokeColor=none;fillColor=none;align=left;verticalAlign=middle;spacingLeft=4;spacingRight=4;overflow=hidden;points=[[0,0.5],[1,0.5]];portConstraint=eastwest;rotatable=0;whiteSpace=wrap;html=1;" vertex="1" parent="ahRHtrevLxcIjmPfejh8-2">
          <mxGeometry y="150" width="242" height="30" as="geometry" />
        </mxCell>
        <mxCell id="ahRHtrevLxcIjmPfejh8-14" value="+SetQuackBehaviour(quackBehaviour)" style="text;strokeColor=none;fillColor=none;align=left;verticalAlign=middle;spacingLeft=4;spacingRight=4;overflow=hidden;points=[[0,0.5],[1,0.5]];portConstraint=eastwest;rotatable=0;whiteSpace=wrap;html=1;" vertex="1" parent="ahRHtrevLxcIjmPfejh8-2">
          <mxGeometry y="180" width="242" height="30" as="geometry" />
        </mxCell>
        <mxCell id="ahRHtrevLxcIjmPfejh8-15" value="+performFly()" style="text;strokeColor=none;fillColor=none;align=left;verticalAlign=middle;spacingLeft=4;spacingRight=4;overflow=hidden;points=[[0,0.5],[1,0.5]];portConstraint=eastwest;rotatable=0;whiteSpace=wrap;html=1;" vertex="1" parent="ahRHtrevLxcIjmPfejh8-2">
          <mxGeometry y="210" width="242" height="30" as="geometry" />
        </mxCell>
        <mxCell id="ahRHtrevLxcIjmPfejh8-16" value="+performQuack()" style="text;strokeColor=none;fillColor=none;align=left;verticalAlign=middle;spacingLeft=4;spacingRight=4;overflow=hidden;points=[[0,0.5],[1,0.5]];portConstraint=eastwest;rotatable=0;whiteSpace=wrap;html=1;" vertex="1" parent="ahRHtrevLxcIjmPfejh8-2">
          <mxGeometry y="240" width="242" height="30" as="geometry" />
        </mxCell>
        <mxCell id="ahRHtrevLxcIjmPfejh8-20" value="FlyingBehaviour interface" style="swimlane;fontStyle=0;childLayout=stackLayout;horizontal=1;startSize=30;horizontalStack=0;resizeParent=1;resizeParentMax=0;resizeLast=0;collapsible=1;marginBottom=0;whiteSpace=wrap;html=1;" vertex="1" parent="WIyWlLk6GJQsqaUBKTNV-1">
          <mxGeometry x="750" y="250" width="160" height="60" as="geometry" />
        </mxCell>
        <mxCell id="ahRHtrevLxcIjmPfejh8-21" value="+fly()" style="text;strokeColor=none;fillColor=none;align=left;verticalAlign=middle;spacingLeft=4;spacingRight=4;overflow=hidden;points=[[0,0.5],[1,0.5]];portConstraint=eastwest;rotatable=0;whiteSpace=wrap;html=1;" vertex="1" parent="ahRHtrevLxcIjmPfejh8-20">
          <mxGeometry y="30" width="160" height="30" as="geometry" />
        </mxCell>
        <mxCell id="ahRHtrevLxcIjmPfejh8-31" value="QuackBehaviour interface" style="swimlane;fontStyle=0;childLayout=stackLayout;horizontal=1;startSize=30;horizontalStack=0;resizeParent=1;resizeParentMax=0;resizeLast=0;collapsible=1;marginBottom=0;whiteSpace=wrap;html=1;" vertex="1" parent="WIyWlLk6GJQsqaUBKTNV-1">
          <mxGeometry x="100" y="250" width="190" height="60" as="geometry" />
        </mxCell>
        <mxCell id="ahRHtrevLxcIjmPfejh8-32" value="+quack()" style="text;strokeColor=none;fillColor=none;align=left;verticalAlign=middle;spacingLeft=4;spacingRight=4;overflow=hidden;points=[[0,0.5],[1,0.5]];portConstraint=eastwest;rotatable=0;whiteSpace=wrap;html=1;" vertex="1" parent="ahRHtrevLxcIjmPfejh8-31">
          <mxGeometry y="30" width="190" height="30" as="geometry" />
        </mxCell>
        <mxCell id="ahRHtrevLxcIjmPfejh8-34" style="edgeStyle=orthogonalEdgeStyle;rounded=0;orthogonalLoop=1;jettySize=auto;html=1;exitX=0.994;exitY=0.167;exitDx=0;exitDy=0;entryX=0.007;entryY=0.077;entryDx=0;entryDy=0;entryPerimeter=0;exitPerimeter=0;" edge="1" parent="WIyWlLk6GJQsqaUBKTNV-1" source="ahRHtrevLxcIjmPfejh8-31" target="ahRHtrevLxcIjmPfejh8-2">
          <mxGeometry relative="1" as="geometry" />
        </mxCell>
        <mxCell id="ahRHtrevLxcIjmPfejh8-35" style="edgeStyle=orthogonalEdgeStyle;rounded=0;orthogonalLoop=1;jettySize=auto;html=1;exitX=0;exitY=0.25;exitDx=0;exitDy=0;entryX=0.992;entryY=0.062;entryDx=0;entryDy=0;entryPerimeter=0;" edge="1" parent="WIyWlLk6GJQsqaUBKTNV-1" source="ahRHtrevLxcIjmPfejh8-20" target="ahRHtrevLxcIjmPfejh8-2">
          <mxGeometry relative="1" as="geometry" />
        </mxCell>
        <mxCell id="ahRHtrevLxcIjmPfejh8-36" value="Quack implements QuackBehaviour" style="swimlane;fontStyle=0;childLayout=stackLayout;horizontal=1;startSize=30;horizontalStack=0;resizeParent=1;resizeParentMax=0;resizeLast=0;collapsible=1;marginBottom=0;whiteSpace=wrap;html=1;" vertex="1" parent="WIyWlLk6GJQsqaUBKTNV-1">
          <mxGeometry x="-40" y="380" width="130" height="60" as="geometry" />
        </mxCell>
        <mxCell id="ahRHtrevLxcIjmPfejh8-37" value="+quack()" style="text;strokeColor=none;fillColor=none;align=left;verticalAlign=middle;spacingLeft=4;spacingRight=4;overflow=hidden;points=[[0,0.5],[1,0.5]];portConstraint=eastwest;rotatable=0;whiteSpace=wrap;html=1;" vertex="1" parent="ahRHtrevLxcIjmPfejh8-36">
          <mxGeometry y="30" width="130" height="30" as="geometry" />
        </mxCell>
        <mxCell id="ahRHtrevLxcIjmPfejh8-38" style="edgeStyle=orthogonalEdgeStyle;rounded=0;orthogonalLoop=1;jettySize=auto;html=1;exitX=0.5;exitY=0;exitDx=0;exitDy=0;entryX=0;entryY=0.75;entryDx=0;entryDy=0;" edge="1" parent="WIyWlLk6GJQsqaUBKTNV-1" source="ahRHtrevLxcIjmPfejh8-36" target="ahRHtrevLxcIjmPfejh8-31">
          <mxGeometry relative="1" as="geometry">
            <mxPoint x="190" y="320" as="targetPoint" />
          </mxGeometry>
        </mxCell>
        <mxCell id="ahRHtrevLxcIjmPfejh8-43" style="edgeStyle=orthogonalEdgeStyle;rounded=0;orthogonalLoop=1;jettySize=auto;html=1;exitX=0.5;exitY=0;exitDx=0;exitDy=0;" edge="1" parent="WIyWlLk6GJQsqaUBKTNV-1" source="ahRHtrevLxcIjmPfejh8-41">
          <mxGeometry relative="1" as="geometry">
            <mxPoint x="250" y="310" as="targetPoint" />
          </mxGeometry>
        </mxCell>
        <mxCell id="ahRHtrevLxcIjmPfejh8-41" value="QuackNoWay implements QuackBehaviour" style="swimlane;fontStyle=0;childLayout=stackLayout;horizontal=1;startSize=30;horizontalStack=0;resizeParent=1;resizeParentMax=0;resizeLast=0;collapsible=1;marginBottom=0;whiteSpace=wrap;html=1;" vertex="1" parent="WIyWlLk6GJQsqaUBKTNV-1">
          <mxGeometry x="100" y="380" width="160" height="60" as="geometry" />
        </mxCell>
        <mxCell id="ahRHtrevLxcIjmPfejh8-42" value="+quack()" style="text;strokeColor=none;fillColor=none;align=left;verticalAlign=middle;spacingLeft=4;spacingRight=4;overflow=hidden;points=[[0,0.5],[1,0.5]];portConstraint=eastwest;rotatable=0;whiteSpace=wrap;html=1;" vertex="1" parent="ahRHtrevLxcIjmPfejh8-41">
          <mxGeometry y="30" width="160" height="30" as="geometry" />
        </mxCell>
        <mxCell id="ahRHtrevLxcIjmPfejh8-46" style="edgeStyle=orthogonalEdgeStyle;rounded=0;orthogonalLoop=1;jettySize=auto;html=1;exitX=0.5;exitY=0;exitDx=0;exitDy=0;entryX=1;entryY=0.5;entryDx=0;entryDy=0;" edge="1" parent="WIyWlLk6GJQsqaUBKTNV-1" source="ahRHtrevLxcIjmPfejh8-44" target="ahRHtrevLxcIjmPfejh8-32">
          <mxGeometry relative="1" as="geometry">
            <mxPoint x="360" y="310" as="targetPoint" />
          </mxGeometry>
        </mxCell>
        <mxCell id="ahRHtrevLxcIjmPfejh8-44" value="Squeak implements QuackBehaviour" style="swimlane;fontStyle=0;childLayout=stackLayout;horizontal=1;startSize=30;horizontalStack=0;resizeParent=1;resizeParentMax=0;resizeLast=0;collapsible=1;marginBottom=0;whiteSpace=wrap;html=1;" vertex="1" parent="WIyWlLk6GJQsqaUBKTNV-1">
          <mxGeometry x="270" y="380" width="130" height="60" as="geometry" />
        </mxCell>
        <mxCell id="ahRHtrevLxcIjmPfejh8-45" value="+quack()" style="text;strokeColor=none;fillColor=none;align=left;verticalAlign=middle;spacingLeft=4;spacingRight=4;overflow=hidden;points=[[0,0.5],[1,0.5]];portConstraint=eastwest;rotatable=0;whiteSpace=wrap;html=1;" vertex="1" parent="ahRHtrevLxcIjmPfejh8-44">
          <mxGeometry y="30" width="130" height="30" as="geometry" />
        </mxCell>
        <mxCell id="ahRHtrevLxcIjmPfejh8-47" value="FlyWithWings implements FlyingBehaviour" style="swimlane;fontStyle=0;childLayout=stackLayout;horizontal=1;startSize=30;horizontalStack=0;resizeParent=1;resizeParentMax=0;resizeLast=0;collapsible=1;marginBottom=0;whiteSpace=wrap;html=1;" vertex="1" parent="WIyWlLk6GJQsqaUBKTNV-1">
          <mxGeometry x="680" y="380" width="163" height="60" as="geometry" />
        </mxCell>
        <mxCell id="ahRHtrevLxcIjmPfejh8-48" value="+fly()" style="text;strokeColor=none;fillColor=none;align=left;verticalAlign=middle;spacingLeft=4;spacingRight=4;overflow=hidden;points=[[0,0.5],[1,0.5]];portConstraint=eastwest;rotatable=0;whiteSpace=wrap;html=1;" vertex="1" parent="ahRHtrevLxcIjmPfejh8-47">
          <mxGeometry y="30" width="163" height="30" as="geometry" />
        </mxCell>
        <mxCell id="ahRHtrevLxcIjmPfejh8-52" style="edgeStyle=orthogonalEdgeStyle;rounded=0;orthogonalLoop=1;jettySize=auto;html=1;exitX=0.25;exitY=0;exitDx=0;exitDy=0;" edge="1" parent="WIyWlLk6GJQsqaUBKTNV-1" source="ahRHtrevLxcIjmPfejh8-49">
          <mxGeometry relative="1" as="geometry">
            <mxPoint x="838" y="310" as="targetPoint" />
          </mxGeometry>
        </mxCell>
        <mxCell id="ahRHtrevLxcIjmPfejh8-49" value="FlyNoWay implements FlyingBehaviour" style="swimlane;fontStyle=0;childLayout=stackLayout;horizontal=1;startSize=30;horizontalStack=0;resizeParent=1;resizeParentMax=0;resizeLast=0;collapsible=1;marginBottom=0;whiteSpace=wrap;html=1;" vertex="1" parent="WIyWlLk6GJQsqaUBKTNV-1">
          <mxGeometry x="860" y="380" width="150" height="60" as="geometry" />
        </mxCell>
        <mxCell id="ahRHtrevLxcIjmPfejh8-50" value="+fly()" style="text;strokeColor=none;fillColor=none;align=left;verticalAlign=middle;spacingLeft=4;spacingRight=4;overflow=hidden;points=[[0,0.5],[1,0.5]];portConstraint=eastwest;rotatable=0;whiteSpace=wrap;html=1;" vertex="1" parent="ahRHtrevLxcIjmPfejh8-49">
          <mxGeometry y="30" width="150" height="30" as="geometry" />
        </mxCell>
        <mxCell id="ahRHtrevLxcIjmPfejh8-51" style="edgeStyle=orthogonalEdgeStyle;rounded=0;orthogonalLoop=1;jettySize=auto;html=1;exitX=0.5;exitY=0;exitDx=0;exitDy=0;entryX=0.188;entryY=1;entryDx=0;entryDy=0;entryPerimeter=0;" edge="1" parent="WIyWlLk6GJQsqaUBKTNV-1" source="ahRHtrevLxcIjmPfejh8-47" target="ahRHtrevLxcIjmPfejh8-21">
          <mxGeometry relative="1" as="geometry" />
        </mxCell>
        <mxCell id="ahRHtrevLxcIjmPfejh8-53" value="MallardDuck extends Duck" style="swimlane;fontStyle=0;childLayout=stackLayout;horizontal=1;startSize=30;horizontalStack=0;resizeParent=1;resizeParentMax=0;resizeLast=0;collapsible=1;marginBottom=0;whiteSpace=wrap;html=1;" vertex="1" parent="WIyWlLk6GJQsqaUBKTNV-1">
          <mxGeometry x="240" y="570" width="190" height="90" as="geometry" />
        </mxCell>
        <mxCell id="ahRHtrevLxcIjmPfejh8-54" value="&lt;div&gt;+MallardDuck()&lt;/div&gt;" style="text;strokeColor=none;fillColor=none;align=left;verticalAlign=middle;spacingLeft=4;spacingRight=4;overflow=hidden;points=[[0,0.5],[1,0.5]];portConstraint=eastwest;rotatable=0;whiteSpace=wrap;html=1;" vertex="1" parent="ahRHtrevLxcIjmPfejh8-53">
          <mxGeometry y="30" width="190" height="30" as="geometry" />
        </mxCell>
        <mxCell id="ahRHtrevLxcIjmPfejh8-56" value="&lt;div&gt;+MallardDuck(flyBehaviour, quackBrhaviour)&lt;/div&gt;" style="text;strokeColor=none;fillColor=none;align=left;verticalAlign=middle;spacingLeft=4;spacingRight=4;overflow=hidden;points=[[0,0.5],[1,0.5]];portConstraint=eastwest;rotatable=0;whiteSpace=wrap;html=1;" vertex="1" parent="ahRHtrevLxcIjmPfejh8-53">
          <mxGeometry y="60" width="190" height="30" as="geometry" />
        </mxCell>
        <mxCell id="ahRHtrevLxcIjmPfejh8-57" value="ModelDuck extends Duck" style="swimlane;fontStyle=0;childLayout=stackLayout;horizontal=1;startSize=30;horizontalStack=0;resizeParent=1;resizeParentMax=0;resizeLast=0;collapsible=1;marginBottom=0;whiteSpace=wrap;html=1;" vertex="1" parent="WIyWlLk6GJQsqaUBKTNV-1">
          <mxGeometry x="446" y="570" width="190" height="90" as="geometry" />
        </mxCell>
        <mxCell id="ahRHtrevLxcIjmPfejh8-58" value="&lt;div&gt;+ModelDuck()&lt;/div&gt;" style="text;strokeColor=none;fillColor=none;align=left;verticalAlign=middle;spacingLeft=4;spacingRight=4;overflow=hidden;points=[[0,0.5],[1,0.5]];portConstraint=eastwest;rotatable=0;whiteSpace=wrap;html=1;" vertex="1" parent="ahRHtrevLxcIjmPfejh8-57">
          <mxGeometry y="30" width="190" height="30" as="geometry" />
        </mxCell>
        <mxCell id="ahRHtrevLxcIjmPfejh8-59" value="&lt;div&gt;+ModelDuck(flyBehaviour, quackBrhaviour)&lt;/div&gt;" style="text;strokeColor=none;fillColor=none;align=left;verticalAlign=middle;spacingLeft=4;spacingRight=4;overflow=hidden;points=[[0,0.5],[1,0.5]];portConstraint=eastwest;rotatable=0;whiteSpace=wrap;html=1;" vertex="1" parent="ahRHtrevLxcIjmPfejh8-57">
          <mxGeometry y="60" width="190" height="30" as="geometry" />
        </mxCell>
        <mxCell id="ahRHtrevLxcIjmPfejh8-61" value="RubberDuck extends Duck" style="swimlane;fontStyle=0;childLayout=stackLayout;horizontal=1;startSize=30;horizontalStack=0;resizeParent=1;resizeParentMax=0;resizeLast=0;collapsible=1;marginBottom=0;whiteSpace=wrap;html=1;" vertex="1" parent="WIyWlLk6GJQsqaUBKTNV-1">
          <mxGeometry x="653" y="570" width="190" height="90" as="geometry" />
        </mxCell>
        <mxCell id="ahRHtrevLxcIjmPfejh8-62" value="&lt;div&gt;+RubberDuck()&lt;/div&gt;" style="text;strokeColor=none;fillColor=none;align=left;verticalAlign=middle;spacingLeft=4;spacingRight=4;overflow=hidden;points=[[0,0.5],[1,0.5]];portConstraint=eastwest;rotatable=0;whiteSpace=wrap;html=1;" vertex="1" parent="ahRHtrevLxcIjmPfejh8-61">
          <mxGeometry y="30" width="190" height="30" as="geometry" />
        </mxCell>
        <mxCell id="ahRHtrevLxcIjmPfejh8-63" value="&lt;div&gt;+RubberDuck(flyBehaviour, quackBrhaviour)&lt;/div&gt;" style="text;strokeColor=none;fillColor=none;align=left;verticalAlign=middle;spacingLeft=4;spacingRight=4;overflow=hidden;points=[[0,0.5],[1,0.5]];portConstraint=eastwest;rotatable=0;whiteSpace=wrap;html=1;" vertex="1" parent="ahRHtrevLxcIjmPfejh8-61">
          <mxGeometry y="60" width="190" height="30" as="geometry" />
        </mxCell>
      </root>
    </mxGraphModel>
  </diagram>
</mxfile>
